<?xml version="1.0" encoding="UTF-8" standalone="no"?><!DOCTYPE svg PUBLIC "-//W3C//DTD SVG 1.1//EN" "http://www.w3.org/Graphics/SVG/1.1/DTD/svg11.dtd"><svg width="100%" height="100%" viewBox="0 0 4386 580" version="1.1" xmlns="http://www.w3.org/2000/svg" xmlns:xlink="http://www.w3.org/1999/xlink" xml:space="preserve" xmlns:serif="http://www.serif.com/" style="fill-rule:evenodd;clip-rule:evenodd;stroke-linejoin:round;stroke-miterlimit:2;"><path d="M1575.29,225.118l-154.63,-0l0,-90.621l169.734,0l-0,-119.392l-310.704,0l-0,542.292l140.97,0l0,-212.892l154.63,0l-0,-119.387Z" style="fill:#fff;fill-rule:nonzero;"/><path d="M1756.81,356.018l63.296,-180.529l63.287,180.529l-126.583,-0Zm-13.667,-340.913l-206.412,542.292l150.316,0l32.363,-94.217l201.383,0l32.367,94.217l150.312,0l-206.412,-542.292l-153.917,0Z" style="fill:#fff;fill-rule:nonzero;"/><path d="M2340.53,-0c-37.883,-0 -74.079,7.083 -108.6,21.217c-34.525,14.15 -64.858,33.808 -90.983,58.979c-26.138,25.171 -47,55.141 -62.571,89.904c-15.592,34.771 -23.375,73 -23.375,114.717c-0,41.708 7.908,80.191 23.733,115.433c15.821,35.242 36.796,65.696 62.933,91.342c26.125,25.658 56.334,45.558 90.621,59.691c34.279,14.138 70.125,21.217 107.525,21.217c18.213,-0 36.675,-1.796 55.375,-5.392c18.7,-3.596 38.842,-9.233 60.417,-16.904l14.383,-5.033l0,-166.859c-35.958,38.367 -76.479,57.538 -121.546,57.538c-20.62,-0 -39.804,-3.833 -57.541,-11.508c-17.742,-7.663 -33.209,-18.213 -46.388,-31.646c-13.191,-13.417 -23.496,-29.242 -30.925,-47.471c-7.437,-18.217 -11.15,-38.117 -11.15,-59.692c0,-21.096 3.713,-40.746 11.15,-58.979c7.429,-18.217 17.621,-33.912 30.567,-47.108c12.946,-13.179 28.408,-23.609 46.392,-31.284c17.979,-7.666 37.512,-11.512 58.616,-11.512c47.942,-0 88.213,19.904 120.825,59.7l0,-168.304c-23.012,-9.579 -44.95,-16.65 -65.808,-21.213c-20.858,-4.55 -42.075,-6.833 -63.65,-6.833" style="fill:#fff;fill-rule:nonzero;"/><path d="M2873.27,15.106l-372.562,0l-0,119.392l115.8,-0l-0,422.9l140.962,-0l0,-422.9l115.8,-0l0,-119.392Z" style="fill:#fff;fill-rule:nonzero;"/><path d="M3297.09,345.951c-6.292,14.046 -14.396,26.629 -24.233,37.817l-12.871,-119.488l-22.833,0l-15.867,124.5l-15.896,15.238l0,-60.917l-7.767,1.867l-8.445,2.033l-9.896,2.359l-37.409,8.979l0,30.441l-31.77,0l-0,-30.441l-63.53,15.221l0,17.325c-12.75,-12.884 -23.045,-27.805 -30.704,-44.934c-8.158,-18.221 -12.225,-38.125 -12.225,-59.7c0,-21.579 4.067,-41.462 12.225,-59.696c8.146,-18.216 19.171,-34.037 33.084,-47.47c13.904,-13.413 30.087,-23.846 48.55,-31.284c18.454,-7.429 37.995,-11.15 58.616,-11.15c20.609,0 40.15,3.721 58.617,11.15c18.45,7.438 34.754,17.871 48.908,31.284c14.138,13.433 25.288,29.254 33.446,47.47c8.146,18.234 12.225,38.117 12.225,59.696c0,21.575 -4.079,41.479 -12.225,59.7m75.154,-263.237c-26.612,-25.896 -58.383,-46.146 -95.3,-60.775c-36.925,-14.621 -77.2,-21.938 -120.825,-21.938c-44.125,0 -84.504,7.317 -121.187,21.938c-36.684,14.629 -68.213,34.879 -94.575,60.775c-26.379,25.887 -47,56.221 -61.854,90.983c-14.867,34.763 -22.3,72.275 -22.3,112.554c-0,40.275 7.433,77.8 22.3,112.559c14.854,34.77 35.475,65.087 61.854,90.979c26.362,25.891 57.891,46.162 94.575,60.775c36.683,14.616 77.062,21.937 121.187,21.937c43.625,0 83.9,-7.321 120.825,-21.937c36.917,-14.613 68.688,-34.884 95.3,-60.775c26.609,-25.892 47.346,-56.209 62.213,-90.979c14.854,-34.759 22.296,-72.284 22.296,-112.559c-0,-40.279 -7.442,-77.791 -22.296,-112.554c-14.867,-34.762 -35.604,-65.096 -62.213,-90.983" style="fill:#fff;fill-rule:nonzero;"/><path d="M3720.28,240.22c-14.866,11.512 -36.208,17.267 -64.012,17.267l-26.608,-0l-0,-133.784l26.608,0c27.804,0 49.146,5.759 64.012,17.263c14.855,11.512 22.292,28.05 22.292,49.629c0,21.575 -7.437,38.121 -22.292,49.625m137.013,42.796c19.887,-25.642 29.846,-59.092 29.846,-100.334c-0,-23.016 -3.721,-44.587 -11.15,-64.733c-7.438,-20.133 -18.467,-37.867 -33.079,-53.221c-14.634,-15.333 -33.209,-27.441 -55.742,-36.316c-22.542,-8.867 -48.913,-13.305 -79.117,-13.305l-219.362,0l-0,542.292l140.971,0l-0,-208.575l134.491,208.575l175.488,0l-170.454,-222.242c38.841,-9.1 68.2,-26.487 88.108,-52.141" style="fill:#fff;fill-rule:nonzero;"/><path d="M4216.96,15.106l-99.975,148.159l-100.692,-148.159l-168.295,0l197.783,281.934l-0,260.358l140.967,-0l-0,-260.358l198.508,-281.934l-168.296,0Z" style="fill:#fff;fill-rule:nonzero;"/><path d="M198.379,476.908l-159.354,-461.804l-39.025,0l198.379,564.246l193.5,-564.246l-39.025,0l-154.475,461.804Z" style="fill:#fff;fill-rule:nonzero;"/><rect x="435.786" y="15.108" width="35.771" height="542.292" style="fill:#fff;"/><path d="M789.454,492.358c-36.584,32.521 -81.304,32.521 -117.888,32.521l-91.062,0l-0,-231.717l84.558,0c60.163,0 86.992,8.942 101.625,15.446c40.654,18.704 57.725,52.038 57.725,100.821c0,25.204 -5.692,56.908 -34.958,82.929m-208.95,-444.733l69.108,-0c28.454,-0 63.417,1.629 90.246,22.767c17.887,14.633 36.583,41.462 36.583,84.554c0,37.404 -13.816,65.041 -35.771,82.929c-23.575,19.512 -46.341,22.767 -73.983,22.767l-86.183,-0l-0,-213.017Zm169.112,221.958c35.771,-21.95 63.417,-60.162 63.417,-118.7c-0,-81.304 -55.288,-135.779 -149.6,-135.779l-118.7,0l-0,542.292l148.783,-0c98.375,-0 168.296,-56.909 168.296,-152.034c0,-69.92 -41.462,-124.395 -112.196,-135.779" style="fill:#fff;fill-rule:nonzero;"/><path d="M898.904,557.398l260.171,-0l-0,-32.521l-224.4,-0l-0,-247.975l219.52,-0l0,-32.521l-219.52,-0l-0,-196.754l224.4,-0l-0,-32.521l-260.171,-0l-0,542.292Z" style="fill:#fff;fill-rule:nonzero;"/></svg>